<?xml version="1.0" encoding="UTF-8" standalone="no"?>
<!-- Created with matplotlib (http://matplotlib.org/) -->

<svg
   xmlns:dc="http://purl.org/dc/elements/1.1/"
   xmlns:cc="http://creativecommons.org/ns#"
   xmlns:rdf="http://www.w3.org/1999/02/22-rdf-syntax-ns#"
   xmlns:svg="http://www.w3.org/2000/svg"
   xmlns="http://www.w3.org/2000/svg"
   xmlns:sodipodi="http://sodipodi.sourceforge.net/DTD/sodipodi-0.dtd"
   xmlns:inkscape="http://www.inkscape.org/namespaces/inkscape"
   height="200"
   version="1.1"
   viewBox="0 0 436.0688 160"
   width="545.086"
   id="svg4270"
   inkscape:version="0.48.5 r10040"
   sodipodi:docname="logo.svg"
   inkscape:export-filename="/home/stefan/projects/openvsip-web/css/logo.png"
   inkscape:export-xdpi="50.16"
   inkscape:export-ydpi="50.16">
  <metadata
     id="metadata4618">
    <rdf:RDF>
      <cc:Work
         rdf:about="">
        <dc:format>image/svg+xml</dc:format>
        <dc:type
           rdf:resource="http://purl.org/dc/dcmitype/StillImage" />
        <dc:title></dc:title>
      </cc:Work>
    </rdf:RDF>
  </metadata>
  <sodipodi:namedview
     pagecolor="#16007c"
     bordercolor="#666666"
     borderopacity="1"
     objecttolerance="10"
     gridtolerance="10"
     guidetolerance="10"
     inkscape:pageopacity="0"
     inkscape:pageshadow="2"
     inkscape:window-width="1358"
     inkscape:window-height="731"
     id="namedview4616"
     showgrid="false"
     fit-margin-top="0"
     fit-margin-left="0"
     fit-margin-right="0"
     fit-margin-bottom="0"
     inkscape:zoom="1.4835607"
     inkscape:cx="240.89048"
     inkscape:cy="77.342321"
     inkscape:window-x="3683"
     inkscape:window-y="413"
     inkscape:window-maximized="0"
     inkscape:current-layer="svg4270" />
  <defs
     id="defs4272"
     style="stroke-linecap:butt;stroke-linejoin:round">
    <style
       type="text/css"
       id="style4274">
*{stroke-linecap:butt;stroke-linejoin:round;}
  </style>
  </defs>
  <defs
     id="defs4611">
    <clipPath
       id="pdae6ac7bf1">
      <rect
         height="295.20001"
         width="843.97498"
         x="136.125"
         y="36.900002"
         id="rect4614"
         style="stroke-linecap:butt;stroke-linejoin:round" />
    </clipPath>
  </defs>
  <g
     id="g5889"
     transform="matrix(0.61774345,0,0,0.61774345,0,-1.8338465e-6)"
     style="stroke-linecap:butt;stroke-linejoin:round">
    <g
       transform="translate(-204.456,-52.7028)"
       style="stroke-linecap:butt;stroke-linejoin:round"
       id="line2d_2">
      <path
         inkscape:connector-curvature="0"
         id="path4288"
         style="fill:none;stroke:#eeefff;stroke-linecap:square;stroke-linejoin:round;stroke-width:0.647518;stroke-miterlimit:4;stroke-dasharray:none"
         d="m 206.456,95.94 146.289,0.1076 25.319,0.063 9.847,-0.1867 8.44,-0.3831 7.033,-0.5219 8.439,-0.8657 15.473,-1.7432 4.22,-0.2709 4.22,-0.0465 2.813,0.139 2.814,0.3088 2.813,0.5083 2.813,0.7373 2.813,0.9942 2.814,1.2763 2.813,1.5801 2.813,1.9 2.813,2.2294 2.814,2.56 2.813,2.884 2.813,3.188 2.813,3.464 4.22,5.616 7.033,9.973 4.22,5.91 2.813,3.708 2.814,3.399 2.813,2.979 2.813,2.449 1.407,0.993 1.406,0.821 1.407,0.637 1.407,0.442 1.406,0.236 1.407,0.021 1.407,-0.203 1.406,-0.434 1.407,-0.671 1.406,-0.912 1.407,-1.157 1.407,-1.402 1.406,-1.647 1.407,-1.89 1.407,-2.129 1.406,-2.363 2.813,-5.39 2.814,-6.203 2.813,-6.898 2.813,-7.447 5.627,-15.8188 4.22,-11.8436 2.813,-7.4514 2.813,-6.8131 2.813,-5.9337 1.407,-2.564 1.407,-2.2582 1.406,-1.9262 1.407,-1.5691 1.406,-1.189 1.407,-0.7876 1.407,-0.3669 1.406,0.0706 1.407,0.5226 1.407,0.9864 1.406,1.4593 1.407,1.9384 1.406,2.421 1.407,2.9037 1.407,3.3838 1.406,3.8579 1.407,4.3231 1.407,4.7764 2.813,10.8494 2.813,12.444 2.813,13.842 2.814,15 4.219,24.08 11.253,66.145 2.814,15.269 2.813,14.175 2.813,12.828 2.813,11.266 1.407,4.992 1.407,4.539 1.406,4.073 1.407,3.595 1.407,3.108 1.406,2.616 1.407,2.121 1.406,1.627 1.407,1.137 1.407,0.652 1.406,0.178 1.407,-0.286 1.407,-0.734 1.406,-1.166 1.407,-1.579 1.406,-1.97 1.407,-2.339 1.407,-2.682 1.406,-3.001 2.814,-6.844 2.813,-7.777 2.813,-8.472 4.22,-13.487 7.033,-22.664 2.813,-8.537 2.814,-7.979 2.813,-7.287 2.813,-6.49 2.813,-5.617 1.407,-2.465 1.407,-2.232 1.406,-1.996 1.407,-1.762 1.406,-1.529 1.407,-1.298 1.407,-1.073 1.406,-0.854 1.407,-0.64 1.407,-0.436 1.406,-0.239 1.407,-0.054 1.406,0.123 1.407,0.286 1.407,0.441 1.406,0.581 2.814,1.537 2.813,1.956 2.813,2.275 4.22,3.807 11.253,10.544 4.22,3.506 2.813,2.09 2.813,1.866 2.814,1.63 2.813,1.392 2.813,1.157 2.813,0.93 2.814,0.72 2.813,0.525 2.813,0.353 4.22,0.251 4.22,-0.014 5.626,-0.308 8.44,-0.784 14.066,-1.333 8.44,-0.552 8.44,-0.334 11.253,-0.189 16.879,-0.006 59.079,0.102 16.879,0 0,0"
         clip-path="url(#pdae6ac7bf1)" />
    </g>
    <g
       transform="translate(-204.456,-52.7028)"
       style="stroke-linecap:butt;stroke-linejoin:round"
       id="line2d_3">
      <path
         inkscape:connector-curvature="0"
         id="path4291"
         style="fill:none;stroke:#aaafff;stroke-linecap:square;stroke-linejoin:round;stroke-opacity:1;stroke-width:0.647518;stroke-miterlimit:4;stroke-dasharray:none"
         d="m 206.456,95.94 147.696,0.1087 21.099,-0.0065 9.847,-0.194 8.439,-0.3617 8.44,-0.5829 11.253,-1.0516 8.44,-0.7578 5.626,-0.2902 4.22,0.0064 4.22,0.2867 2.813,0.389 2.814,0.5774 2.813,0.7909 2.813,1.0274 2.813,1.2845 2.814,1.5577 2.813,1.842 2.813,2.131 2.813,2.416 2.814,2.689 2.813,2.941 4.22,4.808 5.626,6.895 7.033,8.633 2.814,3.188 2.813,2.893 2.813,2.498 2.813,2.003 1.407,0.786 1.407,0.626 1.406,0.456 1.407,0.274 1.406,0.085 1.407,-0.114 1.407,-0.321 1.406,-0.533 1.407,-0.752 1.407,-0.973 1.406,-1.199 1.407,-1.423 1.406,-1.648 1.407,-1.871 1.407,-2.089 2.813,-4.808 2.813,-5.587 2.813,-6.268 2.814,-6.823 4.22,-10.9291 7.033,-18.471 2.813,-6.8447 2.813,-6.1877 1.407,-2.7748 1.406,-2.5241 1.407,-2.2461 1.407,-1.9413 1.406,-1.6113 1.407,-1.2573 1.407,-0.881 1.406,-0.4843 1.407,-0.0692 1.406,0.3623 1.407,0.8074 1.407,1.2639 1.406,1.7291 1.407,2.2001 1.407,2.674 1.406,3.148 1.407,3.6191 1.406,4.084 1.407,4.54 1.407,4.9839 2.813,11.2362 2.813,12.7939 2.813,14.153 2.814,15.275 4.22,24.423 11.253,66.642 2.813,15.291 2.813,14.151 2.813,12.758 2.814,11.146 1.406,4.912 1.407,4.447 1.406,3.967 1.407,3.476 1.407,2.975 1.406,2.47 1.407,1.961 1.407,1.454 1.406,0.951 1.407,0.453 1.406,-0.033 1.407,-0.509 1.407,-0.968 1.406,-1.411 1.407,-1.834 1.407,-2.234 1.406,-2.611 1.407,-2.963 1.406,-3.286 2.814,-7.431 2.813,-8.374 2.813,-9.07 5.627,-19.231 5.626,-19.11 2.813,-8.983 2.814,-8.366 2.813,-7.609 2.813,-6.741 2.813,-5.795 1.407,-2.526 1.407,-2.273 1.406,-2.019 1.407,-1.766 1.407,-1.515 1.406,-1.266 1.407,-1.024 1.406,-0.786 1.407,-0.558 1.407,-0.338 1.406,-0.127 1.407,0.072 1.407,0.261 1.406,0.438 1.407,0.6 1.406,0.752 2.814,1.901 2.813,2.344 2.813,2.677 4.22,4.419 9.846,10.621 4.22,4.112 2.814,2.472 2.813,2.221 2.813,1.955 2.813,1.68 2.814,1.407 2.813,1.142 2.813,0.891 2.813,0.66 2.814,0.45 2.813,0.266 4.22,0.109 4.22,-0.162 5.626,-0.499 9.846,-1.205 9.847,-1.137 7.033,-0.611 7.033,-0.419 8.44,-0.283 11.253,-0.122 21.099,0.071 39.386,0.091 32.352,0 0,0"
         clip-path="url(#pdae6ac7bf1)" />
    </g>
    <g
       transform="translate(-204.456,-52.7028)"
       style="stroke-linecap:butt;stroke-linejoin:round"
       id="line2d_4">
      <path
         inkscape:connector-curvature="0"
         id="path4294"
         style="fill:none;stroke:#888fff;stroke-linecap:square;stroke-linejoin:round;stroke-opacity:1;stroke-width:0.647518;stroke-miterlimit:4;stroke-dasharray:none"
         d="m 206.456,95.94 174.422,-0.1061 9.846,-0.3736 9.846,-0.6161 19.693,-1.3934 4.22,-0.0798 4.22,0.1197 4.22,0.3907 2.813,0.4478 2.813,0.6235 2.814,0.82 2.813,1.0354 2.813,1.2666 2.813,1.5094 2.814,1.7589 2.813,2.008 2.813,2.249 2.813,2.476 4.22,4.082 5.627,5.919 7.033,7.53 4.22,4.148 2.813,2.434 2.813,2.065 2.813,1.603 1.407,0.601 1.407,0.454 1.406,0.297 1.407,0.129 1.407,-0.045 1.406,-0.229 1.407,-0.418 1.406,-0.614 1.407,-0.814 1.407,-1.017 1.406,-1.223 1.407,-1.429 1.407,-1.633 1.406,-1.837 2.813,-4.262 2.814,-5.002 2.813,-5.661 2.813,-6.211 4.22,-10.0491 8.44,-20.5612 2.813,-6.2446 2.813,-5.5735 1.407,-2.4656 1.407,-2.2151 1.406,-1.9383 1.407,-1.6361 1.406,-1.3094 1.407,-0.9599 1.407,-0.5889 1.406,-0.1985 1.407,0.2097 1.407,0.6334 1.406,1.0703 1.407,1.518 1.406,1.9738 1.407,2.435 1.407,2.899 1.406,3.3626 1.407,3.8233 1.407,4.2776 1.406,4.7229 2.813,10.7302 2.814,12.3284 2.813,13.751 2.813,14.955 4.22,24.133 14.066,82.902 2.814,14.681 2.813,13.368 2.813,11.819 1.407,5.264 1.406,4.806 1.407,4.329 1.407,3.838 1.406,3.335 1.407,2.823 1.406,2.306 1.407,1.787 1.407,1.267 1.406,0.753 1.407,0.245 1.407,-0.252 1.406,-0.738 1.407,-1.207 1.406,-1.659 1.407,-2.09 1.407,-2.498 1.406,-2.882 1.407,-3.238 2.813,-7.436 2.813,-8.511 2.814,-9.333 4.22,-14.973 8.439,-30.335 2.814,-9.394 2.813,-8.717 2.813,-7.892 2.813,-6.954 2.814,-5.931 1.406,-2.566 1.407,-2.294 1.406,-2.021 1.407,-1.748 1.407,-1.479 1.406,-1.212 1.407,-0.952 1.407,-0.698 1.406,-0.453 1.407,-0.217 1.406,0.008 1.407,0.221 1.407,0.422 1.406,0.61 1.407,0.784 1.407,0.944 2.813,2.309 2.813,2.774 2.813,3.121 4.22,5.088 8.44,10.414 4.22,4.785 2.813,2.901 2.813,2.625 2.814,2.325 2.813,2.013 2.813,1.698 2.813,1.391 2.814,1.096 2.813,0.821 2.813,0.571 2.813,0.348 2.814,0.154 4.219,-0.068 4.22,-0.339 5.627,-0.719 19.693,-2.843 7.033,-0.685 7.033,-0.451 8.44,-0.288 9.846,-0.099 19.693,0.096 33.759,0.122 43.605,0.003 0,0"
         clip-path="url(#pdae6ac7bf1)" />
    </g>
    <g
       transform="translate(-204.456,-52.7028)"
       style="stroke-linecap:butt;stroke-linejoin:round"
       id="line2d_5">
      <path
         inkscape:connector-curvature="0"
         id="path4297"
         style="fill:none;stroke:#444888;stroke-linecap:square;stroke-linejoin:round;stroke-opacity:1;stroke-width:0.647518;stroke-miterlimit:4;stroke-dasharray:none"
         d="m 206.456,95.94 170.202,-0.1104 11.253,-0.3732 11.253,-0.6204 15.473,-0.8832 5.626,-0.0786 4.22,0.1384 4.22,0.375 4.22,0.6759 2.813,0.6489 2.813,0.8278 2.814,1.0214 2.813,1.2269 2.813,1.4395 2.813,1.655 2.814,1.867 2.813,2.068 4.22,3.435 4.22,3.745 11.253,10.273 2.813,2.287 2.813,2.023 2.813,1.677 2.814,1.249 1.406,0.439 1.407,0.304 1.406,0.159 1.407,0.005 1.407,-0.155 1.406,-0.323 1.407,-0.497 1.407,-0.676 1.406,-0.858 1.407,-1.044 1.406,-1.231 1.407,-1.419 1.407,-1.605 2.813,-3.757 2.813,-4.451 2.813,-5.081 2.814,-5.62 4.22,-9.1811 9.846,-22.1426 2.813,-5.6567 2.813,-4.9765 1.407,-2.1668 1.407,-1.9179 1.406,-1.6437 1.407,-1.3452 1.407,-1.0234 1.406,-0.6798 1.407,-0.3156 1.406,0.0672 1.407,0.467 1.407,0.8814 1.406,1.3086 1.407,1.7459 1.407,2.1909 1.406,2.641 1.407,3.0934 1.406,3.5454 1.407,3.9941 1.407,4.4365 1.406,4.8698 2.814,10.9885 2.813,12.5396 2.813,13.917 2.813,15.079 4.22,24.24 12.66,74.985 2.813,15.104 2.813,13.89 2.814,12.42 2.813,10.729 1.406,4.674 1.407,4.187 1.407,3.687 1.406,3.175 1.407,2.653 1.407,2.126 1.406,1.598 1.407,1.069 1.406,0.546 1.407,0.029 1.407,-0.477 1.406,-0.97 1.407,-1.448 1.407,-1.907 1.406,-2.344 1.407,-2.758 1.406,-3.147 1.407,-3.508 2.813,-7.985 2.814,-9.066 2.813,-9.886 4.22,-15.776 7.033,-26.63 2.813,-10.064 2.813,-9.414 2.814,-8.596 2.813,-7.639 2.813,-6.58 1.407,-2.87 1.406,-2.583 1.407,-2.291 1.407,-1.999 1.406,-1.708 1.407,-1.419 1.406,-1.135 1.407,-0.856 1.407,-0.586 1.406,-0.325 1.407,-0.073 1.407,0.166 1.406,0.394 1.407,0.606 1.406,0.806 1.407,0.99 1.407,1.159 2.813,2.761 2.813,3.248 2.813,3.605 4.22,5.815 8.44,11.759 4.22,5.357 2.813,3.232 2.813,2.915 2.814,2.57 2.813,2.215 2.813,1.856 2.813,1.507 2.814,1.173 2.813,0.862 2.813,0.58 2.813,0.329 2.814,0.111 2.813,-0.074 4.22,-0.38 4.22,-0.611 7.033,-1.279 9.846,-1.805 7.033,-1.041 5.627,-0.627 7.033,-0.53 7.033,-0.293 8.44,-0.13 14.066,0.053 36.572,0.227 53.452,0.01 0,0"
         clip-path="url(#pdae6ac7bf1)" />
    </g>
    <g
       transform="translate(-204.456,-52.7028)"
       style="stroke-linecap:butt;stroke-linejoin:round"
       id="line2d_6">
      <path
         inkscape:connector-curvature="0"
         id="path4300"
         style="fill:none;stroke:#222888;stroke-linecap:square;stroke-linejoin:round;stroke-opacity:1"
         d="m 206.456,95.94 165.982,-0.1079 11.253,-0.3092 12.66,-0.5775 12.659,-0.5778 5.627,-0.0825 5.626,0.1614 4.22,0.354 4.22,0.6145 4.22,0.9285 2.813,0.8171 2.813,0.9892 2.814,1.1693 2.813,1.3529 2.813,1.537 4.22,2.63 4.22,2.974 5.626,4.339 8.44,6.61 2.813,2.003 2.814,1.79 2.813,1.505 2.813,1.147 1.407,0.416 1.406,0.299 1.407,0.175 1.407,0.041 1.406,-0.098 1.407,-0.246 1.406,-0.398 1.407,-0.557 1.407,-0.72 1.406,-0.887 1.407,-1.055 1.407,-1.224 1.406,-1.395 2.813,-3.292 2.814,-3.938 2.813,-4.533 2.813,-5.054 2.813,-5.4761 4.22,-8.7329 7.033,-14.6338 2.814,-5.3522 2.813,-4.7693 1.407,-2.1027 1.406,-1.8811 1.407,-1.635 1.406,-1.3647 1.407,-1.0713 1.407,-0.7558 1.406,-0.4193 1.407,-0.0633 1.407,0.3104 1.406,0.7004 1.407,1.1043 1.406,1.5202 1.407,1.9457 1.407,2.3786 1.406,2.816 1.407,3.2557 1.407,3.6946 1.406,4.1301 1.407,4.5593 2.813,10.3671 2.813,11.9381 2.814,13.357 2.813,14.585 2.813,15.581 4.22,24.658 9.846,58.256 2.814,15.413 2.813,14.309 2.813,12.934 2.813,11.321 1.407,4.991 1.407,4.516 1.406,4.024 1.407,3.515 1.406,2.996 1.407,2.467 1.407,1.933 1.406,1.397 1.407,0.862 1.407,0.332 1.406,-0.192 1.407,-0.705 1.406,-1.204 1.407,-1.687 1.407,-2.151 1.406,-2.593 1.407,-3.012 1.407,-3.404 1.406,-3.768 2.813,-8.509 2.814,-9.591 2.813,-10.404 4.22,-16.52 7.033,-27.709 2.813,-10.414 2.813,-9.704 2.814,-8.82 2.813,-7.793 2.813,-6.66 1.407,-2.88 1.406,-2.574 1.407,-2.264 1.407,-1.952 1.406,-1.642 1.407,-1.334 1.407,-1.033 1.406,-0.736 1.407,-0.449 1.406,-0.171 1.407,0.095 1.407,0.349 1.406,0.589 1.407,0.815 1.407,1.025 1.406,1.22 1.407,1.397 2.813,3.258 2.813,3.763 2.814,4.131 5.626,8.841 5.627,8.835 4.219,6.16 2.814,3.748 2.813,3.403 2.813,3.023 2.813,2.623 2.814,2.216 2.813,1.815 2.813,1.429 2.813,1.064 2.814,0.731 2.813,0.431 2.813,0.167 2.813,-0.056 2.814,-0.241 4.22,-0.626 5.626,-1.15 15.473,-3.415 5.626,-0.963 5.627,-0.738 5.626,-0.518 7.034,-0.384 8.439,-0.177 11.253,0.034 43.606,0.346 54.858,0.005 0,0"
         clip-path="url(#pdae6ac7bf1)" />
    </g>
    <g
       transform="translate(-204.456,-52.7028)"
       style="stroke-linecap:butt;stroke-linejoin:round"
       id="line2d_7">
      <path
         inkscape:connector-curvature="0"
         id="path4303"
         style="fill:none;stroke:#222888;stroke-linecap:square;stroke-linejoin:round;stroke-opacity:1"
         d="m 206.456,95.94 158.949,-0.1107 15.473,-0.3401 22.506,-0.5822 5.626,0.0701 5.627,0.2966 4.22,0.4261 4.219,0.6441 4.22,0.8973 4.22,1.1783 4.22,1.4741 4.22,1.7674 4.22,2.034 5.626,3.034 11.253,6.267 2.814,1.36 2.813,1.171 2.813,0.926 2.813,0.62 2.814,0.259 2.813,-0.158 1.406,-0.25 1.407,-0.372 1.407,-0.498 1.406,-0.628 1.407,-0.762 1.407,-0.898 1.406,-1.035 2.813,-2.485 2.814,-3.027 2.813,-3.543 2.813,-4.0118 2.813,-4.4129 4.22,-7.171 8.44,-14.7959 2.813,-4.5109 2.814,-4.0142 1.406,-1.7642 1.407,-1.572 1.406,-1.3571 1.407,-1.1202 1.407,-0.8615 1.406,-0.5821 1.407,-0.2828 1.407,0.0355 1.406,0.3713 1.407,0.7231 1.406,1.0895 1.407,1.4684 1.407,1.858 1.406,2.2562 1.407,2.6609 1.407,3.0695 1.406,3.4796 1.407,3.8889 1.406,4.2945 1.407,4.6939 2.813,10.5479 2.814,12.0044 2.813,13.314 2.813,14.439 4.22,23.275 14.066,80.228 2.813,14.26 2.814,12.98 2.813,11.448 1.407,5.079 1.406,4.617 1.407,4.135 1.406,3.633 1.407,3.119 1.407,2.591 1.406,2.055 1.407,1.513 1.407,0.971 1.406,0.428 1.407,-0.11 1.406,-0.639 1.407,-1.158 1.407,-1.663 1.406,-2.151 1.407,-2.619 1.407,-3.065 1.406,-3.486 1.407,-3.88 2.813,-8.823 2.813,-10.025 2.814,-10.952 4.219,-17.532 7.034,-29.742 2.813,-11.277 2.813,-10.555 2.813,-9.628 2.814,-8.532 1.406,-3.811 1.407,-3.49 1.406,-3.159 1.407,-2.819 1.407,-2.474 1.406,-2.126 1.407,-1.777 1.407,-1.43 1.406,-1.085 1.407,-0.748 1.406,-0.418 1.407,-0.098 1.407,0.211 1.406,0.507 1.407,0.789 1.407,1.054 1.406,1.303 1.407,1.533 1.406,1.747 2.814,4.054 2.813,4.67 2.813,5.126 4.22,8.205 7.033,13.857 4.22,7.756 2.813,4.74 2.814,4.316 2.813,3.846 2.813,3.345 2.813,2.832 2.814,2.32 2.813,1.822 2.813,1.352 2.813,0.914 2.814,0.52 2.813,0.172 2.813,-0.128 2.813,-0.378 2.814,-0.578 4.219,-1.139 5.627,-1.807 9.846,-3.209 5.627,-1.558 4.22,-0.967 4.22,-0.782 4.219,-0.601 5.627,-0.546 5.626,-0.305 7.034,-0.132 9.846,0.086 36.572,0.566 28.133,0.045 43.605,-0.012 0,0"
         clip-path="url(#pdae6ac7bf1)"
         inkscape:export-xdpi="50.16"
         inkscape:export-ydpi="50.16" />
    </g>
    <g
       transform="translate(-204.456,-52.7028)"
       style="stroke-linecap:butt;stroke-linejoin:round"
       id="line2d_8">
      <path
         inkscape:connector-curvature="0"
         id="path4306"
         style="fill:none;stroke:#000088;stroke-linecap:square;stroke-linejoin:round;stroke-opacity:1"
         d="m 206.456,95.94 154.729,-0.0968 16.879,-0.3072 19.693,-0.401 7.033,0.0787 5.627,0.2749 4.22,0.3798 4.22,0.5652 4.219,0.7799 4.22,1.0173 4.22,1.2663 4.22,1.5109 4.22,1.733 5.626,2.567 9.847,4.615 4.22,1.698 2.813,0.923 2.813,0.695 2.813,0.417 2.814,0.086 2.813,-0.291 2.813,-0.712 2.813,-1.167 2.814,-1.647 2.813,-2.139 2.813,-2.631 2.813,-3.104 2.814,-3.5407 2.813,-3.9238 4.22,-6.4356 9.846,-15.6624 2.813,-4.0172 2.814,-3.5199 1.406,-1.5202 1.407,-1.3316 1.407,-1.1219 1.406,-0.8913 1.407,-0.6402 1.406,-0.3695 1.407,-0.0798 1.407,0.2275 1.406,0.5514 1.407,0.8907 1.407,1.2434 1.406,1.6081 1.407,1.983 1.406,2.3658 1.407,2.7547 1.407,3.1471 1.406,3.5411 1.407,3.9338 1.407,4.323 2.813,9.7865 2.813,11.236 2.813,12.564 2.814,13.729 2.813,14.697 4.22,23.341 9.846,55.643 2.813,14.852 2.814,13.839 2.813,12.55 2.813,11.012 1.407,4.859 1.406,4.397 1.407,3.914 1.407,3.413 1.406,2.897 1.407,2.369 1.406,1.833 1.407,1.292 1.407,0.749 1.406,0.206 1.407,-0.331 1.407,-0.86 1.406,-1.379 1.407,-1.883 1.406,-2.37 1.407,-2.838 1.407,-3.281 1.406,-3.702 1.407,-4.093 2.813,-9.241 2.813,-10.429 2.814,-11.337 4.22,-18.063 7.033,-30.444 2.813,-11.474 2.813,-10.696 2.813,-9.707 2.814,-8.543 1.406,-3.791 1.407,-3.452 1.407,-3.101 1.406,-2.744 1.407,-2.38 1.406,-2.014 1.407,-1.647 1.407,-1.281 1.406,-0.92 1.407,-0.566 1.407,-0.219 1.406,0.117 1.407,0.441 1.406,0.75 1.407,1.045 1.407,1.322 1.406,1.581 1.407,1.823 1.407,2.043 2.813,4.667 2.813,5.3 2.813,5.763 5.627,12.25 5.626,12.206 4.22,8.507 2.813,5.177 2.814,4.697 2.813,4.168 2.813,3.606 2.813,3.032 2.814,2.46 2.813,1.908 1.407,0.755 2.813,1.135 2.813,0.674 2.813,0.263 2.814,-0.095 2.813,-0.397 2.813,-0.643 2.813,-0.833 4.22,-1.497 16.88,-6.406 4.22,-1.267 4.219,-1.05 4.22,-0.829 4.22,-0.62 4.22,-0.432 5.627,-0.332 7.033,-0.124 8.439,0.106 36.573,0.744 22.506,0.065 54.858,-0.019 0,0"
         clip-path="url(#pdae6ac7bf1)" />
    </g>
    <g
       transform="translate(-204.456,-52.7028)"
       style="stroke-linecap:butt;stroke-linejoin:round"
       id="line2d_9">
      <path
         inkscape:connector-curvature="0"
         id="path4309"
         style="fill:none;stroke:#000066;stroke-linecap:square;stroke-linejoin:round;stroke-opacity:1;stroke-width:0.7770216;stroke-miterlimit:4;stroke-dasharray:none"
         d="m 206.456,95.94 151.916,-0.0968 19.692,-0.3137 15.473,-0.2147 7.033,0.088 5.627,0.2511 5.626,0.4811 4.22,0.5503 4.22,0.7382 4.22,0.9419 4.22,1.1501 4.22,1.3485 5.626,2.052 14.067,5.398 4.219,1.252 2.814,0.613 2.813,0.38 2.813,0.103 2.813,-0.218 2.814,-0.579 2.813,-0.974 2.813,-1.395 2.813,-1.832 2.814,-2.272 2.813,-2.702 2.813,-3.106 2.813,-3.4666 2.814,-3.7663 4.22,-6.0336 7.033,-10.1846 2.813,-3.7382 2.813,-3.3235 1.407,-1.4568 1.406,-1.2933 1.407,-1.1096 1.407,-0.9059 1.406,-0.6827 1.407,-0.4402 1.407,-0.1791 1.406,0.0996 1.407,0.3952 1.406,0.7064 1.407,1.0318 1.407,1.3701 1.406,1.7196 1.407,2.0786 1.407,2.4452 1.406,2.8173 1.407,3.1927 1.406,3.5695 1.407,3.9449 1.407,4.3167 2.813,9.7227 2.813,11.1051 2.813,12.371 2.814,13.478 2.813,14.392 4.22,22.801 9.846,54.11 2.813,14.375 2.814,13.355 2.813,12.063 2.813,10.527 1.407,4.619 1.406,4.158 1.407,3.676 1.407,3.177 1.406,2.663 1.407,2.138 1.407,1.604 1.406,1.065 1.407,0.524 1.406,-0.015 1.407,-0.549 1.407,-1.077 1.406,-1.592 1.407,-2.094 1.407,-2.577 1.406,-3.042 1.407,-3.482 1.406,-3.899 1.407,-4.286 2.813,-9.613 2.814,-10.782 2.813,-11.666 4.22,-18.498 7.033,-30.979 2.813,-11.603 2.813,-10.769 2.814,-9.718 2.813,-8.488 1.406,-3.737 1.407,-3.381 1.407,-3.013 1.406,-2.638 1.407,-2.256 1.407,-1.872 1.406,-1.488 1.407,-1.104 1.406,-0.727 1.407,-0.356 1.407,0.006 1.406,0.356 1.407,0.695 1.407,1.018 1.406,1.324 1.407,1.613 1.406,1.882 1.407,2.132 2.813,4.928 2.814,5.665 2.813,6.221 4.22,9.981 8.439,20.226 2.814,6.287 2.813,5.866 2.813,5.36 2.813,4.791 2.814,4.178 2.813,3.544 2.813,2.905 1.407,1.216 1.406,1.063 1.407,0.913 1.407,0.768 1.406,0.629 1.407,0.494 1.407,0.367 1.406,0.247 2.813,0.16 2.814,-0.232 2.813,-0.563 2.813,-0.829 2.813,-1.035 4.22,-1.814 14.067,-6.433 4.219,-1.628 4.22,-1.383 4.22,-1.121 4.22,-0.863 4.22,-0.625 4.22,-0.415 5.626,-0.286 5.627,-0.06 8.44,0.163 32.352,0.898 16.879,0.116 49.232,-0.017 19.693,-0.002 0,0"
         clip-path="url(#pdae6ac7bf1)" />
    </g>
    <g
       transform="translate(-204.456,-52.7028)"
       style="stroke-linecap:butt;stroke-linejoin:round"
       id="line2d_10">
      <path
         inkscape:connector-curvature="0"
         id="path4312"
         style="fill:none;stroke:#000050;stroke-linecap:square;stroke-linejoin:round;stroke-opacity:1;stroke-width:0.5180144;stroke-miterlimit:4;stroke-dasharray:none"
         d="m 206.456,95.94 150.509,-0.1061 39.386,-0.2822 7.033,0.3113 5.626,0.4775 5.627,0.7357 4.22,0.7442 4.219,0.9171 5.627,1.4805 5.626,1.719 12.66,4.037 4.22,1.068 2.813,0.533 2.813,0.341 2.814,0.11 2.813,-0.161 2.813,-0.468 2.813,-0.809 2.814,-1.175 2.813,-1.558 2.813,-1.951 2.813,-2.3372 2.814,-2.7066 2.813,-3.0426 2.813,-3.3294 4.22,-5.3835 8.44,-10.9986 2.813,-3.3005 2.813,-2.8884 1.407,-1.2434 1.407,-1.0843 1.406,-0.9065 1.407,-0.7099 1.406,-0.4948 1.407,-0.2618 1.407,-0.0114 1.406,0.2558 1.407,0.5385 1.407,0.836 1.406,1.147 1.407,1.4698 1.406,1.8034 1.407,2.1457 1.407,2.4952 1.406,2.8497 1.407,3.2074 1.407,3.5661 1.406,3.9235 2.813,8.9027 2.814,10.2591 2.813,11.521 2.813,12.649 2.813,13.608 4.22,21.756 12.66,66.849 2.813,13.358 2.813,12.202 2.814,10.791 1.406,4.795 1.407,4.359 1.407,3.902 1.406,3.424 1.407,2.929 1.406,2.42 1.407,1.899 1.407,1.37 1.406,0.837 1.407,0.3 1.407,-0.235 1.406,-0.763 1.407,-1.286 1.406,-1.796 1.407,-2.292 1.407,-2.771 1.406,-3.229 1.407,-3.665 1.407,-4.075 2.813,-9.265 2.813,-10.542 2.813,-11.542 4.22,-18.538 8.44,-37.687 2.813,-11.661 2.813,-10.77 2.814,-9.658 2.813,-8.365 1.407,-3.651 1.406,-3.278 1.407,-2.893 1.406,-2.5 1.407,-2.102 1.407,-1.7 1.406,-1.3 1.407,-0.9 1.407,-0.507 1.406,-0.12 1.407,0.256 1.406,0.622 1.407,0.972 1.407,1.308 1.406,1.626 1.407,1.925 1.407,2.203 1.406,2.461 2.813,5.605 2.814,6.358 2.813,6.921 4.22,11.014 7.033,18.548 4.22,10.381 2.813,6.347 2.813,5.777 2.814,5.142 2.813,4.46 2.813,3.758 1.407,1.613 1.406,1.438 1.407,1.265 1.407,1.095 1.406,0.931 1.407,0.77 1.406,0.617 1.407,0.47 1.407,0.33 1.406,0.197 1.407,0.073 2.813,-0.193 2.813,-0.587 2.814,-0.911 2.813,-1.166 4.22,-2.081 7.033,-3.867 5.626,-3.025 4.22,-2.051 4.22,-1.786 4.22,-1.486 4.22,-1.177 4.22,-0.88 4.22,-0.612 4.22,-0.38 5.626,-0.22 5.627,0.017 8.439,0.275 23.913,0.931 12.66,0.218 18.286,0.073 66.111,-0.038 0,0"
         clip-path="url(#pdae6ac7bf1)" />
    </g>
    <g
       transform="translate(-204.456,-52.7028)"
       style="stroke-linecap:butt;stroke-linejoin:round"
       id="line2d_11">
      <path
         inkscape:connector-curvature="0"
         id="path4315"
         style="fill:none;stroke:#000040;stroke-linecap:square;stroke-linejoin:round;stroke-opacity:1;stroke-width:0.2590072;stroke-miterlimit:4;stroke-dasharray:none"
         d="m 206.456,95.94 149.102,-0.1098 33.759,-0.2167 7.034,0.1918 7.033,0.4288 5.626,0.5704 5.627,0.8096 5.626,1.0619 5.627,1.2949 8.439,2.2251 7.034,1.822 4.219,0.903 4.22,0.63 2.814,0.211 2.813,0.001 2.813,-0.243 2.813,-0.518 2.814,-0.823 2.813,-1.149 2.813,-1.49 2.813,-1.837 2.814,-2.1784 2.813,-2.5019 2.813,-2.7939 4.22,-4.6326 12.66,-14.604 2.813,-2.7057 2.813,-2.231 1.407,-0.8939 1.406,-0.7225 1.407,-0.5339 1.407,-0.3278 1.406,-0.105 1.407,0.134 1.406,0.3887 1.407,0.658 1.407,0.9411 1.406,1.2367 1.407,1.5436 1.407,1.8604 1.406,2.1855 1.407,2.517 1.406,2.8535 1.407,3.1927 1.407,3.5327 1.406,3.8715 2.814,8.7431 2.813,10.0271 2.813,11.22 2.813,12.285 2.814,13.185 4.219,21.031 11.253,57.552 2.814,13.238 2.813,12.222 2.813,10.945 1.407,4.919 1.406,4.514 1.407,4.084 1.407,3.632 1.406,3.161 1.407,2.672 1.407,2.169 1.406,1.656 1.407,1.133 1.406,0.607 1.407,0.078 1.407,-0.448 1.406,-0.971 1.407,-1.485 1.407,-1.988 1.406,-2.477 1.407,-2.948 1.406,-3.398 1.407,-3.827 1.407,-4.229 2.813,-9.55 2.813,-10.795 2.813,-11.762 4.22,-18.799 7.033,-31.83 2.814,-12.023 2.813,-11.201 2.813,-10.139 2.813,-8.871 1.407,-3.907 1.407,-3.531 1.406,-3.142 1.407,-2.741 1.407,-2.332 1.406,-1.917 1.407,-1.501 1.406,-1.083 1.407,-0.669 1.407,-0.26 1.406,0.14 1.407,0.532 1.407,0.909 1.406,1.272 1.407,1.62 1.406,1.947 1.407,2.257 1.407,2.543 2.813,5.856 2.813,6.723 2.813,7.388 4.22,11.883 8.44,24.248 2.813,7.592 2.814,7.111 2.813,6.52 2.813,5.846 2.813,5.114 2.814,4.346 1.406,1.881 1.407,1.686 1.406,1.493 1.407,1.304 1.407,1.117 1.406,0.936 1.407,0.761 1.407,0.593 1.406,0.431 1.407,0.278 1.406,0.134 1.407,-0.002 1.407,-0.128 2.813,-0.597 2.813,-0.987 2.813,-1.297 2.814,-1.532 4.22,-2.583 11.253,-7.155 4.219,-2.362 4.22,-2.046 4.22,-1.691 2.813,-0.926 4.22,-1.096 4.22,-0.772 4.22,-0.487 4.22,-0.253 5.626,-0.058 7.034,0.218 15.472,0.846 11.253,0.49 11.253,0.272 15.473,0.117 43.606,-0.044 32.352,-0.005 0,0"
         clip-path="url(#pdae6ac7bf1)" />
    </g>
    <path
       transform="translate(-204.456,-52.7028)"
       clip-path="url(#pdae6ac7bf1)"
       d="m 206.456,95.94 161.762,-0.1011 12.66,-0.2976 29.539,-0.9091 5.626,0.1706 4.22,0.3293 4.22,0.5537 4.22,0.8233 4.22,1.1327 4.22,1.4713 4.22,1.8229 4.219,2.165 4.22,2.469 5.627,3.644 9.846,6.528 2.813,1.66 2.814,1.46 2.813,1.194 2.813,0.863 2.813,0.468 1.407,0.066 1.407,-0.056 1.406,-0.183 1.407,-0.317 1.407,-0.457 1.406,-0.6 1.407,-0.749 1.406,-0.899 1.407,-1.051 1.407,-1.205 2.813,-2.868 2.813,-3.463 2.813,-4.02 2.814,-4.517 2.813,-4.9311 4.22,-7.939 7.033,-13.5205 2.813,-5.029 2.813,-4.5374 1.407,-2.0243 1.407,-1.8295 1.406,-1.6106 1.407,-1.3685 1.407,-1.1035 1.406,-0.8164 1.407,-0.5084 1.406,-0.1804 1.407,0.1661 1.407,0.5295 1.406,0.9082 1.407,1.3003 1.407,1.7036 1.406,2.1162 1.407,2.5354 1.406,2.9592 1.407,3.3845 1.407,3.8092 1.406,4.2304 1.407,4.6451 2.813,10.4961 2.813,12.0108 2.814,13.378 2.813,14.555 4.22,23.535 7.033,41.482 4.22,24.573 2.813,15.597 2.813,14.614 2.814,13.349 2.813,11.83 1.406,5.275 1.407,4.816 1.407,4.336 1.406,3.838 1.407,3.325 1.407,2.801 1.406,2.267 1.407,1.728 1.406,1.187 1.407,0.648 1.407,0.112 1.406,-0.416 1.407,-0.932 1.407,-1.436 1.406,-1.922 1.407,-2.39 1.406,-2.834 1.407,-3.256 1.407,-3.649 2.813,-8.364 2.813,-9.574 2.813,-10.515 4.22,-16.917 8.44,-34.46 2.813,-10.708 2.814,-9.94 2.813,-8.99 2.813,-7.891 1.407,-3.499 1.406,-3.185 1.407,-2.864 1.407,-2.538 1.406,-2.209 1.407,-1.879 1.406,-1.549 1.407,-1.224 1.407,-0.903 1.406,-0.591 1.407,-0.286 1.407,0.007 1.406,0.289 1.407,0.556 1.406,0.81 1.407,1.047 1.407,1.268 1.406,1.471 2.814,3.483 2.813,4.078 2.813,4.526 4.22,7.311 8.44,14.872 4.22,6.824 2.813,4.136 2.813,3.74 2.813,3.308 2.814,2.856 2.813,2.397 2.813,1.946 2.813,1.511 2.814,1.103 2.813,0.73 2.813,0.395 2.813,0.102 2.814,-0.146 2.813,-0.351 4.22,-0.817 5.626,-1.425 14.066,-3.771 5.627,-1.201 5.626,-0.931 5.627,-0.662 5.626,-0.425 7.034,-0.266 8.439,-0.059 14.067,0.178 23.912,0.289 28.133,0.061 43.605,-0.009 0,0"
       style="fill:none;stroke:#000080;stroke-width:4;stroke-linecap:square;stroke-linejoin:round;stroke-miterlimit:4;stroke-opacity:1;stroke-dasharray:none"
       id="path4321"
       inkscape:connector-curvature="0" />
    <text
       sodipodi:linespacing="125%"
       id="text4637-1"
       y="155.32582"
       x="92.965874"
       style="font-size:87.04405212px;font-style:oblique;font-variant:normal;font-weight:normal;font-stretch:normal;text-align:start;line-height:125%;letter-spacing:0px;word-spacing:0px;writing-mode:lr-tb;text-anchor:start;fill:#000080;fill-opacity:1;stroke:none;font-family:Waree;-inkscape-font-specification:Waree Oblique"
       xml:space="preserve"><tspan
         y="155.32582"
         x="92.965874"
         id="tspan5812"
         sodipodi:role="line">Open</tspan></text>
    <text
       sodipodi:linespacing="125%"
       id="text4637"
       y="254.41759"
       x="461.45398"
       style="font-size:91.88128662px;font-style:oblique;font-variant:normal;font-weight:normal;font-stretch:normal;text-align:start;line-height:125%;letter-spacing:0px;word-spacing:0px;writing-mode:lr-tb;text-anchor:start;fill:#000080;fill-opacity:1;stroke:none;font-family:Waree;-inkscape-font-specification:Waree Oblique"
       xml:space="preserve"><tspan
         y="254.41759"
         x="461.45398"
         id="tspan4639"
         sodipodi:role="line">SIP</tspan></text>
  </g>
</svg>
