<?xml version="1.0" encoding="UTF-8" standalone="no"?>
<!-- Created with Inkscape (http://www.inkscape.org/) -->

<svg
   xmlns:dc="http://purl.org/dc/elements/1.1/"
   xmlns:cc="http://creativecommons.org/ns#"
   xmlns:rdf="http://www.w3.org/1999/02/22-rdf-syntax-ns#"
   xmlns:svg="http://www.w3.org/2000/svg"
   xmlns="http://www.w3.org/2000/svg"
   xmlns:sodipodi="http://sodipodi.sourceforge.net/DTD/sodipodi-0.dtd"
   xmlns:inkscape="http://www.inkscape.org/namespaces/inkscape"
   width="570.67065"
   height="193.87013"
   id="svg6270"
   version="1.1"
   inkscape:version="0.48.4 r9939"
   sodipodi:docname="logo.svg"
   inkscape:export-filename="/home/stefan/projects/myblog/css/logo.png"
   inkscape:export-xdpi="50.16"
   inkscape:export-ydpi="50.16">
  <defs
     id="defs6272">
    <clipPath
       id="p09d260489c">
      <rect
         height="352.79999"
         width="1090.1925"
         x="175.83749"
         y="44.099998"
         id="rect334"
         style="stroke-linecap:butt;stroke-linejoin:round" />
    </clipPath>
    <clipPath
       id="clipPath6305">
      <rect
         height="352.79999"
         width="1090.1925"
         x="175.83749"
         y="44.099998"
         id="rect6307"
         style="stroke-linecap:butt;stroke-linejoin:round" />
    </clipPath>
    <clipPath
       id="clipPath6309">
      <rect
         height="352.79999"
         width="1090.1925"
         x="175.83749"
         y="44.099998"
         id="rect6311"
         style="stroke-linecap:butt;stroke-linejoin:round" />
    </clipPath>
    <clipPath
       id="clipPath6313">
      <rect
         height="352.79999"
         width="1090.1925"
         x="175.83749"
         y="44.099998"
         id="rect6315"
         style="stroke-linecap:butt;stroke-linejoin:round" />
    </clipPath>
    <clipPath
       id="clipPath6317">
      <rect
         height="352.79999"
         width="1090.1925"
         x="175.83749"
         y="44.099998"
         id="rect6319"
         style="stroke-linecap:butt;stroke-linejoin:round" />
    </clipPath>
    <clipPath
       id="clipPath6321">
      <rect
         height="352.79999"
         width="1090.1925"
         x="175.83749"
         y="44.099998"
         id="rect6323"
         style="stroke-linecap:butt;stroke-linejoin:round" />
    </clipPath>
    <clipPath
       id="clipPath6325">
      <rect
         height="352.79999"
         width="1090.1925"
         x="175.83749"
         y="44.099998"
         id="rect6327"
         style="stroke-linecap:butt;stroke-linejoin:round" />
    </clipPath>
    <clipPath
       id="clipPath6329">
      <rect
         height="352.79999"
         width="1090.1925"
         x="175.83749"
         y="44.099998"
         id="rect6331"
         style="stroke-linecap:butt;stroke-linejoin:round" />
    </clipPath>
    <clipPath
       id="clipPath6333">
      <rect
         height="352.79999"
         width="1090.1925"
         x="175.83749"
         y="44.099998"
         id="rect6335"
         style="stroke-linecap:butt;stroke-linejoin:round" />
    </clipPath>
  </defs>
  <sodipodi:namedview
     id="base"
     pagecolor="#ffffff"
     bordercolor="#666666"
     borderopacity="1.0"
     inkscape:pageopacity="0.0"
     inkscape:pageshadow="2"
     inkscape:zoom="0.35"
     inkscape:cx="47.478177"
     inkscape:cy="-142.31493"
     inkscape:document-units="px"
     inkscape:current-layer="layer1"
     showgrid="false"
     fit-margin-top="0"
     fit-margin-left="0"
     fit-margin-right="0"
     fit-margin-bottom="0"
     inkscape:window-width="1241"
     inkscape:window-height="786"
     inkscape:window-x="1982"
     inkscape:window-y="295"
     inkscape:window-maximized="0" />
  <metadata
     id="metadata6275">
    <rdf:RDF>
      <cc:Work
         rdf:about="">
        <dc:format>image/svg+xml</dc:format>
        <dc:type
           rdf:resource="http://purl.org/dc/dcmitype/StillImage" />
        <dc:title></dc:title>
      </cc:Work>
    </rdf:RDF>
  </metadata>
  <g
     inkscape:label="Layer 1"
     inkscape:groupmode="layer"
     id="layer1"
     transform="translate(176.76389,-196.17712)">
    <g
       transform="matrix(0.625,0,0,0.625,-397.13417,179.85494)"
       id="g6278">
      <path
         transform="translate(89.10545,-37.033309)"
         clip-path="url(#p09d260489c)"
         d="m 266.687,114.66 188.967,0.101 29.071,0.334 18.17,0.136 9.085,-0.114 9.085,-0.353 7.268,-0.518 7.268,-0.767 7.268,-1.027 7.268,-1.259 19.987,-3.701 5.451,-0.634 3.634,-0.2 3.634,0.034 3.634,0.321 3.634,0.66 3.634,1.051 3.634,1.491 1.817,0.925 1.817,1.052 1.817,1.184 1.817,1.318 3.634,3.055 3.633,3.629 3.634,4.205 3.634,4.774 3.634,5.315 3.634,5.81 3.634,6.24 5.451,9.979 14.536,27.353 3.634,6.2 3.634,5.611 1.817,2.532 1.817,2.32 1.817,2.089 1.817,1.838 1.817,1.568 1.817,1.281 1.817,0.976 1.817,0.657 1.817,0.325 1.817,-0.019 1.817,-0.373 1.817,-0.735 1.817,-1.101 1.817,-1.472 1.817,-1.842 1.817,-2.21 1.817,-2.574 1.817,-2.932 1.817,-3.277 1.817,-3.613 1.817,-3.93 3.634,-8.743 3.634,-9.767 3.634,-10.576 5.451,-16.824 7.268,-22.701 3.634,-10.759 3.634,-9.9344 1.817,-4.5593 1.817,-4.2364 1.817,-3.8771 1.817,-3.4829 1.817,-3.0559 1.817,-2.5983 1.817,-2.1125 1.817,-1.6014 1.817,-1.0679 1.817,-0.5149 1.817,0.0539 1.817,0.6354 1.817,1.2256 1.817,1.8212 1.817,2.4182 1.817,3.0129 1.816,3.6014 1.817,4.1799 1.817,4.7449 1.817,5.2923 1.817,5.8193 1.817,6.321 1.817,6.796 3.634,14.89 3.634,16.385 3.634,17.565 5.451,27.799 10.902,56.287 3.634,17.637 3.634,16.52 3.634,15.115 3.634,13.467 1.817,6.053 1.817,5.57 1.817,5.071 1.817,4.56 1.817,4.037 1.817,3.51 1.817,2.978 1.817,2.446 1.817,1.918 1.817,1.397 1.817,0.884 1.817,0.385 1.817,-0.101 1.817,-0.568 1.817,-1.015 1.817,-1.441 1.817,-1.842 1.817,-2.219 1.817,-2.568 1.817,-2.888 1.817,-3.18 3.634,-7.114 3.634,-7.915 3.634,-8.47 14.536,-34.854 3.634,-7.969 3.634,-7.36 3.634,-6.644 3.634,-5.85 1.817,-2.611 1.817,-2.397 1.817,-2.18 1.817,-1.962 1.817,-1.747 1.817,-1.534 1.817,-1.323 1.816,-1.119 1.817,-0.921 1.817,-0.728 1.817,-0.545 1.817,-0.369 1.817,-0.204 1.817,-0.047 1.817,0.098 1.817,0.233 1.817,0.357 3.634,1.044 3.634,1.41 3.634,1.688 5.451,2.88 16.353,9.029 5.451,2.595 3.634,1.528 3.634,1.352 3.634,1.172 3.634,0.991 3.634,0.817 3.634,0.653 5.451,0.699 5.451,0.411 5.451,0.178 7.271,-0.029 9.08,-0.3 34.52,-1.401 14.54,-0.253 19.99,-0.098 92.66,0.053 0,0"
         style="fill:none;stroke:#aaaae0;stroke-linecap:square;stroke-linejoin:round;stroke-opacity:0.2"
         id="path17"
         inkscape:connector-curvature="0" />
      <path
         transform="translate(89.10545,-37.033309)"
         clip-path="url(#p09d260489c)"
         d="m 266.687,114.66 185.333,0.107 30.888,0.031 12.719,-0.199 10.902,-0.391 9.085,-0.525 10.902,-0.86 19.987,-1.679 5.451,-0.232 5.451,0.008 3.634,0.185 3.634,0.364 3.634,0.573 3.634,0.814 3.634,1.084 3.634,1.378 3.634,1.697 3.634,2.03 3.634,2.374 3.634,2.718 3.634,3.053 3.634,3.369 3.634,3.651 5.451,5.903 9.084,10.42 5.451,6.122 3.634,3.81 3.634,3.458 3.634,2.985 1.817,1.279 1.817,1.115 1.817,0.939 1.817,0.749 1.817,0.544 1.817,0.329 1.817,0.101 1.817,-0.137 1.817,-0.383 1.817,-0.637 1.817,-0.899 1.817,-1.163 1.817,-1.432 1.817,-1.701 1.817,-1.97 1.817,-2.236 1.817,-2.497 1.817,-2.75 1.817,-2.995 3.634,-6.678 3.634,-7.491 3.634,-8.154 5.451,-13.062 9.085,-22.0749 3.634,-8.1803 3.634,-7.395 1.817,-3.3162 1.817,-3.0167 1.817,-2.6843 1.817,-2.3202 1.817,-1.9257 1.817,-1.5026 1.817,-1.0529 1.817,-0.5788 1.817,-0.0826 1.817,0.4329 1.817,0.965 1.817,1.5105 1.817,2.0665 1.817,2.6293 1.817,3.1958 1.817,3.7623 1.817,4.3252 1.817,4.881 1.817,5.4258 1.817,5.9563 1.817,6.4686 1.817,6.96 3.634,15.29 3.634,16.914 3.634,18.257 5.45,29.188 14.536,79.645 3.634,18.275 3.634,16.912 3.634,15.247 1.817,6.915 1.817,6.406 1.817,5.87 1.817,5.315 1.817,4.741 1.817,4.154 1.817,3.556 1.817,2.952 1.817,2.344 1.817,1.738 1.817,1.136 1.817,0.542 1.817,-0.04 1.817,-0.608 1.817,-1.158 1.817,-1.686 1.817,-2.191 1.817,-2.67 1.817,-3.121 1.817,-3.54 1.817,-3.928 1.817,-4.281 3.634,-9.482 3.634,-10.461 3.634,-11.143 14.536,-45.632 3.634,-10.391 3.634,-9.565 3.634,-8.589 1.817,-3.892 1.817,-3.608 1.817,-3.317 1.817,-3.018 1.817,-2.717 1.817,-2.414 1.817,-2.11 1.817,-1.81 1.817,-1.514 1.817,-1.223 1.817,-0.94 1.817,-0.667 1.817,-0.403 1.817,-0.152 1.817,0.086 1.817,0.312 1.817,0.523 1.817,0.718 1.817,0.898 1.817,1.062 3.634,2.553 3.633,3.016 3.634,3.353 5.451,5.401 9.085,9.12 5.451,5.078 3.634,3.091 3.634,2.808 3.634,2.497 3.634,2.173 3.634,1.844 3.634,1.521 3.634,1.212 3.634,0.924 3.634,0.66 3.634,0.424 3.634,0.219 3.634,0.044 5.451,-0.194 5.451,-0.42 9.085,-0.976 16.355,-1.825 9.08,-0.777 9.09,-0.545 9.08,-0.335 10.9,-0.191 16.36,-0.035 94.48,0.189 16.35,-0.001 0,0"
         style="fill:none;stroke:#6666b0;stroke-linecap:square;stroke-linejoin:round;stroke-opacity:0.6"
         id="path20"
         inkscape:connector-curvature="0" />
      <path
         transform="translate(89.10545,-37.033309)"
         clip-path="url(#p09d260489c)"
         d="m 266.687,114.66 218.038,-0.097 12.719,-0.341 12.719,-0.574 27.255,-1.413 5.451,-0.044 5.451,0.166 5.451,0.448 3.634,0.494 3.634,0.676 3.634,0.88 3.634,1.103 3.634,1.342 3.634,1.592 3.634,1.85 3.634,2.105 3.634,2.354 3.634,2.583 5.451,4.244 5.451,4.564 10.901,9.277 3.634,2.855 3.634,2.587 3.634,2.223 1.817,0.944 1.817,0.817 1.817,0.677 1.817,0.525 1.817,0.363 1.817,0.189 1.817,0.007 1.817,-0.186 1.817,-0.386 1.817,-0.594 1.817,-0.807 1.817,-1.026 1.817,-1.248 1.817,-1.471 1.817,-1.696 1.817,-1.918 1.817,-2.137 1.817,-2.352 1.817,-2.561 3.634,-5.707 3.634,-6.41 3.634,-6.989 5.451,-11.226 9.085,-19.0465 3.634,-7.0713 3.634,-6.3859 1.817,-2.8562 1.817,-2.5897 1.817,-2.2921 1.817,-1.9644 1.817,-1.6077 1.817,-1.2231 1.817,-0.8124 1.817,-0.3772 1.817,0.0804 1.817,0.558 1.817,1.0535 1.817,1.5639 1.817,2.0865 1.817,2.6184 1.817,3.1563 1.817,3.697 1.817,4.2372 1.817,4.7734 1.817,5.3022 1.817,5.8201 1.817,6.3236 1.817,6.809 3.634,14.987 3.634,16.632 3.634,18.021 3.634,19.11 5.451,29.969 9.084,50.343 3.634,19.164 3.634,18.052 3.634,16.6 3.634,14.843 1.817,6.678 1.817,6.144 1.817,5.586 1.817,5.005 1.817,4.406 1.817,3.794 1.817,3.171 1.817,2.541 1.817,1.909 1.817,1.279 1.817,0.652 1.817,0.035 1.817,-0.571 1.817,-1.16 1.817,-1.73 1.817,-2.278 1.817,-2.802 1.817,-3.296 1.817,-3.761 1.817,-4.193 1.817,-4.591 1.817,-4.952 3.634,-10.835 3.634,-11.814 5.451,-18.855 9.085,-31.826 3.634,-12.028 3.634,-11.251 3.634,-10.273 3.634,-9.13 1.817,-4.096 1.817,-3.768 1.817,-3.43 1.817,-3.086 1.817,-2.739 1.817,-2.389 1.817,-2.041 1.817,-1.696 1.817,-1.356 1.817,-1.024 1.817,-0.7 1.817,-0.387 1.817,-0.088 1.817,0.199 1.817,0.47 1.817,0.725 1.817,0.962 1.817,1.184 1.817,1.385 1.817,1.568 3.634,3.61 3.634,4.113 3.634,4.468 7.267,9.44 5.451,7.031 3.634,4.468 3.634,4.197 3.634,3.863 3.634,3.483 3.634,3.073 3.634,2.646 3.634,2.219 3.634,1.8 3.634,1.402 3.634,1.031 3.634,0.693 3.634,0.393 3.634,0.132 3.634,-0.087 3.634,-0.267 5.451,-0.652 7.268,-1.158 18.17,-3.068 7.271,-0.97 7.26,-0.749 7.27,-0.532 9.09,-0.401 10.9,-0.196 14.54,0.012 63.59,0.324 58.14,0 0,0"
         style="fill:none;stroke:#4444a0;stroke-linecap:square;stroke-linejoin:round;stroke-opacity:0.73333333"
         id="path23"
         inkscape:connector-curvature="0" />
      <path
         transform="translate(89.10545,-37.033309)"
         clip-path="url(#p09d260489c)"
         d="m 266.687,114.66 212.587,-0.099 14.536,-0.34 14.536,-0.578 19.987,-0.862 7.268,-0.099 5.451,0.11 5.451,0.334 5.451,0.623 3.634,0.609 3.634,0.784 3.634,0.977 3.634,1.182 3.634,1.397 3.634,1.618 3.634,1.836 3.634,2.046 3.634,2.241 5.451,3.67 7.268,5.265 7.268,5.295 3.634,2.489 3.633,2.277 3.634,1.981 3.634,1.595 1.817,0.626 1.817,0.497 1.817,0.358 1.817,0.209 1.817,0.05 1.817,-0.118 1.817,-0.293 1.817,-0.477 1.817,-0.666 1.817,-0.86 1.817,-1.059 1.817,-1.261 1.817,-1.464 1.817,-1.667 1.817,-1.868 1.817,-2.066 1.817,-2.26 3.634,-5.071 3.634,-5.741 3.634,-6.309 3.634,-6.745 14.536,-27.7788 3.634,-6.0785 1.817,-2.7478 1.817,-2.5129 1.817,-2.2482 1.817,-1.954 1.817,-1.631 1.817,-1.2804 1.817,-0.9032 1.817,-0.5011 1.817,-0.0757 1.817,0.371 1.817,0.837 1.817,1.3198 1.817,1.8168 1.817,2.3254 1.817,2.8427 1.817,3.3655 1.817,3.8909 1.817,4.4155 1.817,4.936 1.817,5.4489 1.817,5.9511 1.817,6.439 1.817,6.909 3.634,15.141 3.634,16.729 3.634,18.063 3.634,19.101 5.451,29.868 9.085,49.968 3.633,18.95 3.634,17.803 3.634,16.317 1.817,7.505 1.817,7.022 1.817,6.508 1.817,5.965 1.817,5.398 1.817,4.808 1.817,4.201 1.817,3.581 1.817,2.948 1.817,2.311 1.817,1.669 1.817,1.031 1.817,0.396 1.817,-0.23 1.817,-0.842 1.817,-1.439 1.817,-2.016 1.817,-2.571 1.817,-3.099 1.817,-3.6 1.817,-4.068 1.817,-4.503 1.817,-4.904 3.634,-10.855 3.634,-11.989 3.634,-12.795 14.536,-52.696 3.634,-12.05 3.634,-11.094 3.634,-9.946 1.817,-4.494 1.817,-4.155 1.817,-3.804 1.817,-3.443 1.817,-3.076 1.817,-2.705 1.817,-2.333 1.817,-1.963 1.817,-1.594 1.817,-1.234 1.817,-0.88 1.817,-0.536 1.817,-0.205 1.817,0.114 1.817,0.417 1.817,0.704 1.817,0.974 1.817,1.225 1.817,1.457 1.817,1.67 1.817,1.861 3.634,4.216 3.634,4.738 3.634,5.096 16.352,23.526 3.634,4.666 3.634,4.28 3.634,3.843 3.634,3.376 3.634,2.892 3.634,2.408 3.634,1.935 3.634,1.486 3.634,1.067 3.634,0.689 3.634,0.352 3.634,0.061 3.634,-0.183 3.634,-0.382 5.451,-0.849 7.268,-1.442 16.353,-3.374 7.268,-1.215 7.271,-0.949 7.26,-0.683 7.27,-0.444 9.09,-0.289 10.9,-0.082 18.17,0.15 32.71,0.277 39.97,0.052 45.42,-0.006 0,0"
         style="fill:none;stroke:#222290;stroke-width:2;stroke-linecap:square;stroke-linejoin:round;stroke-miterlimit:4;stroke-opacity:0.86666667;stroke-dasharray:none"
         id="path26"
         inkscape:connector-curvature="0" />
      <path
         transform="translate(89.10545,-37.033309)"
         clip-path="url(#p09d260489c)"
         d="m 266.687,114.66 207.136,-0.096 16.353,-0.329 18.17,-0.626 14.536,-0.462 7.268,-0.05 5.451,0.123 5.451,0.316 5.451,0.566 5.451,0.871 3.634,0.775 3.634,0.946 3.634,1.126 3.634,1.312 3.634,1.499 3.634,1.681 5.451,2.837 5.451,3.152 9.085,5.632 7.268,4.393 3.634,1.984 3.634,1.744 3.633,1.428 3.634,1.031 1.817,0.343 1.817,0.216 1.817,0.079 1.817,-0.067 1.817,-0.219 1.817,-0.379 1.817,-0.545 1.817,-0.718 1.817,-0.894 1.817,-1.075 1.817,-1.257 1.817,-1.44 1.817,-1.623 1.817,-1.804 1.817,-1.983 3.634,-4.479 3.634,-5.111 3.634,-5.66 3.634,-6.096 5.451,-9.652 7.268,-12.9004 3.634,-6.0103 3.634,-5.4227 1.817,-2.4193 1.817,-2.1864 1.817,-1.925 1.817,-1.6354 1.817,-1.3188 1.817,-0.9758 1.817,-0.6075 1.817,-0.2156 1.817,0.1984 1.817,0.6329 1.817,1.0854 1.817,1.554 1.817,2.036 1.817,2.5291 1.817,3.0302 1.817,3.5365 1.817,4.0449 1.817,4.5525 1.817,5.0558 1.817,5.5515 1.817,6.037 1.817,6.507 3.634,14.355 3.634,15.988 3.634,17.395 3.634,18.531 5.451,29.242 10.902,59.298 3.634,18.64 3.634,17.465 3.633,15.954 1.817,7.314 1.817,6.824 1.817,6.305 1.817,5.755 1.817,5.183 1.817,4.587 1.817,3.974 1.817,3.347 1.817,2.709 1.817,2.065 1.817,1.419 1.817,0.774 1.817,0.134 1.817,-0.496 1.817,-1.115 1.817,-1.716 1.817,-2.297 1.817,-2.856 1.817,-3.388 1.817,-3.89 1.817,-4.362 1.817,-4.798 1.817,-5.198 3.634,-11.442 3.634,-12.567 5.451,-20.217 10.902,-41.184 3.634,-12.798 3.634,-11.879 3.634,-10.744 1.817,-4.889 1.817,-4.542 1.817,-4.181 1.817,-3.807 1.817,-3.423 1.817,-3.034 1.817,-2.64 1.817,-2.245 1.817,-1.851 1.817,-1.463 1.817,-1.079 1.817,-0.706 1.817,-0.342 1.817,0.009 1.817,0.344 1.817,0.665 1.817,0.968 1.817,1.251 1.817,1.515 1.817,1.759 1.817,1.981 1.817,2.181 3.634,4.874 3.634,5.409 5.451,8.737 10.902,17.774 3.633,5.527 3.634,5.156 3.634,4.713 3.634,4.216 3.634,3.685 3.634,3.139 3.634,2.594 1.817,1.096 1.817,0.966 3.634,1.558 3.634,1.09 3.634,0.665 3.634,0.291 3.634,-0.033 3.634,-0.304 3.634,-0.522 5.451,-1.084 7.268,-1.774 12.719,-3.217 7.268,-1.582 5.451,-0.988 5.451,-0.803 5.454,-0.623 7.26,-0.574 7.27,-0.33 9.09,-0.158 12.72,0.057 52.69,0.544 47.24,0.022 34.52,-0.006 0,0"
         style="fill:none;stroke:#000080;stroke-width:6.4000001;stroke-linecap:square;stroke-linejoin:round;stroke-miterlimit:4;stroke-opacity:1;stroke-dasharray:none"
         id="path29"
         inkscape:connector-curvature="0" />
      <path
         transform="translate(89.10545,-37.033309)"
         clip-path="url(#p09d260489c)"
         d="m 266.687,114.66 203.502,-0.11 18.17,-0.334 34.523,-0.789 7.268,0.141 5.451,0.296 5.451,0.509 5.451,0.77 5.451,1.072 3.634,0.9 3.634,1.056 3.634,1.214 5.451,2.112 5.451,2.432 5.451,2.688 18.17,9.263 3.634,1.521 3.634,1.262 3.634,0.933 3.633,0.534 1.817,0.096 1.817,-0.028 1.817,-0.161 1.817,-0.299 1.817,-0.444 1.817,-0.595 1.817,-0.751 1.817,-0.911 1.817,-1.073 1.817,-1.237 1.817,-1.403 1.817,-1.566 1.817,-1.73 3.634,-3.931 3.634,-4.523 3.634,-5.046 3.634,-5.475 5.451,-8.752 7.268,-11.8653 3.634,-5.6082 3.634,-5.1212 1.817,-2.3111 1.817,-2.1084 1.817,-1.8787 1.817,-1.6219 1.817,-1.3387 1.817,-1.0297 1.817,-0.6957 1.817,-0.3379 1.817,0.0424 1.817,0.4437 1.817,0.8643 1.817,1.302 1.817,1.7549 1.817,2.2205 1.817,2.6965 1.817,3.1801 1.817,3.6684 1.817,4.1586 1.817,4.6477 1.817,5.1324 1.817,5.6103 1.817,6.076 1.817,6.53 3.634,14.346 3.634,15.912 3.634,17.257 3.634,18.336 5.451,28.857 10.902,58.267 3.634,18.238 3.634,17.043 3.634,15.513 1.817,7.087 1.816,6.594 1.817,6.07 1.817,5.518 1.817,4.941 1.817,4.343 1.817,3.727 1.817,3.096 1.817,2.456 1.817,1.809 1.817,1.16 1.817,0.512 1.817,-0.131 1.817,-0.764 1.817,-1.384 1.817,-1.987 1.817,-2.571 1.817,-3.13 1.817,-3.664 1.817,-4.166 1.817,-4.637 1.817,-5.072 1.817,-5.472 3.634,-11.981 3.634,-13.089 5.451,-20.954 9.085,-35.545 3.634,-13.476 3.634,-12.615 3.634,-11.507 1.817,-5.273 1.817,-4.924 1.817,-4.555 1.817,-4.171 1.817,-3.775 1.817,-3.369 1.817,-2.957 1.817,-2.541 1.817,-2.123 1.817,-1.709 1.817,-1.297 1.817,-0.894 1.817,-0.5 1.817,-0.116 1.817,0.252 1.817,0.606 1.817,0.942 1.817,1.26 1.817,1.557 1.817,1.833 1.817,2.088 1.817,2.318 3.634,5.237 3.634,5.878 3.634,6.329 7.268,13.287 5.451,9.87 3.634,6.27 3.634,5.89 3.633,5.42 3.634,4.883 3.634,4.301 3.634,3.692 1.817,1.615 1.817,1.462 1.817,1.31 1.817,1.162 1.817,1.016 1.817,0.876 1.817,0.739 1.817,0.609 1.817,0.484 3.634,0.622 3.634,0.205 3.634,-0.153 3.634,-0.452 3.634,-0.69 5.451,-1.362 7.268,-2.159 10.902,-3.32 7.268,-1.945 5.451,-1.228 5.451,-1.008 5.451,-0.788 5.451,-0.583 7.27,-0.501 7.27,-0.246 9.08,-0.06 12.72,0.165 34.52,0.55 25.44,0.112 76.31,-0.01 0,0"
         style="fill:none;stroke:#222290;stroke-width:2;stroke-linecap:square;stroke-linejoin:round;stroke-miterlimit:4;stroke-opacity:0.86666667;stroke-dasharray:none"
         id="path32"
         inkscape:connector-curvature="0" />
      <path
         transform="translate(89.10545,-37.033309)"
         clip-path="url(#p09d260489c)"
         d="m 266.687,114.66 198.052,-0.097 19.986,-0.307 30.889,-0.56 7.268,0.096 7.268,0.328 5.451,0.454 5.451,0.676 5.451,0.932 5.451,1.216 5.451,1.513 5.451,1.806 5.451,2.071 7.268,3.068 12.719,5.515 3.634,1.396 3.634,1.215 3.634,0.975 3.634,0.672 3.634,0.308 1.817,-0.001 1.817,-0.114 1.816,-0.234 1.817,-0.36 1.817,-0.491 1.817,-0.627 1.817,-0.768 1.817,-0.911 1.817,-1.057 1.817,-1.205 1.817,-1.352 1.817,-1.499 3.634,-3.431 3.634,-3.977 3.634,-4.471 3.634,-4.886 5.451,-7.884 9.085,-13.4755 3.634,-5.0231 3.634,-4.5292 1.817,-2.0164 1.817,-1.8167 1.817,-1.5915 1.817,-1.3409 1.817,-1.0651 1.817,-0.7652 1.817,-0.4415 1.817,-0.0955 1.817,0.2719 1.817,0.6591 1.817,1.0644 1.817,1.4861 1.817,1.9219 1.817,2.3699 1.817,2.8274 1.817,3.2922 1.817,3.7612 1.817,4.232 1.817,4.7014 1.817,5.1661 1.817,5.625 1.817,6.071 1.817,6.506 3.634,14.243 3.634,15.739 3.634,17.019 3.634,18.04 5.451,28.319 9.085,47.727 3.634,18.225 3.634,17.187 3.634,15.809 1.817,7.287 1.817,6.827 1.817,6.333 1.817,5.808 1.817,5.255 1.816,4.677 1.817,4.079 1.817,3.462 1.817,2.831 1.817,2.191 1.817,1.544 1.817,0.895 1.817,0.247 1.817,-0.396 1.817,-1.028 1.817,-1.648 1.817,-2.25 1.817,-2.833 1.817,-3.391 1.817,-3.922 1.817,-4.424 1.817,-4.891 1.817,-5.325 3.634,-11.794 3.634,-13.051 3.634,-13.96 7.268,-29.226 5.451,-21.673 3.634,-13.714 3.634,-12.783 3.634,-11.601 1.817,-5.29 1.817,-4.92 1.817,-4.53 1.817,-4.125 1.817,-3.707 1.817,-3.279 1.817,-2.845 1.817,-2.407 1.817,-1.968 1.817,-1.531 1.817,-1.1 1.817,-0.675 1.817,-0.262 1.817,0.139 1.817,0.527 1.817,0.896 1.817,1.249 1.817,1.58 1.817,1.89 1.817,2.178 1.817,2.442 1.817,2.682 3.634,5.981 3.634,6.636 5.451,10.741 10.902,21.987 3.634,6.884 3.634,6.444 3.634,5.91 3.634,5.303 3.633,4.648 1.817,2.07 1.817,1.897 1.817,1.726 1.817,1.555 1.817,1.386 1.817,1.22 1.817,1.059 1.817,0.903 1.817,0.751 1.817,0.606 1.817,0.468 1.817,0.337 1.817,0.215 3.634,0.092 3.634,-0.303 3.634,-0.629 3.634,-0.89 3.634,-1.087 5.451,-1.871 16.353,-5.869 5.451,-1.673 5.451,-1.43 5.451,-1.166 5.451,-0.905 5.451,-0.663 5.451,-0.449 7.27,-0.325 7.27,-0.092 10.9,0.126 45.42,0.877 25.44,0.089 76.31,-0.021 0,0"
         style="fill:none;stroke:#4444a0;stroke-linecap:square;stroke-linejoin:round;stroke-opacity:0.73333333"
         id="path35"
         inkscape:connector-curvature="0" />
      <path
         transform="translate(89.10545,-37.033309)"
         clip-path="url(#p09d260489c)"
         d="m 266.687,114.66 190.784,-0.097 27.254,-0.321 18.17,-0.155 9.085,0.109 7.268,0.271 7.268,0.502 5.451,0.567 5.451,0.756 5.451,0.958 5.451,1.164 5.451,1.358 7.268,2.056 16.353,4.823 5.451,1.278 3.634,0.636 3.634,0.408 3.634,0.132 3.634,-0.193 3.634,-0.56 3.634,-0.966 3.634,-1.404 3.633,-1.863 3.634,-2.331 3.634,-2.794 3.634,-3.234 3.634,-3.637 3.634,-3.979 5.451,-6.433 10.902,-13.1452 3.634,-3.9445 3.634,-3.452 1.817,-1.486 1.817,-1.2959 1.817,-1.0834 1.817,-0.8483 1.817,-0.5914 1.817,-0.3129 1.817,-0.0136 1.817,0.3057 1.817,0.6436 1.817,0.9991 1.817,1.3708 1.817,1.7566 1.817,2.1553 1.817,2.5644 1.817,2.982 1.817,3.4058 1.817,3.8332 1.817,4.2619 1.817,4.6888 1.817,5.112 1.817,5.528 1.817,5.934 3.634,13.032 3.634,14.466 3.634,15.718 3.634,16.747 5.451,26.469 10.902,53.919 3.634,17.019 3.634,15.965 3.634,14.583 1.817,6.677 1.817,6.219 1.817,5.73 1.817,5.21 1.817,4.664 1.817,4.092 1.817,3.501 1.817,2.892 1.817,2.269 1.817,1.638 1.817,0.999 1.816,0.359 1.817,-0.28 1.817,-0.913 1.817,-1.537 1.817,-2.146 1.817,-2.739 1.817,-3.312 1.817,-3.859 1.817,-4.38 1.817,-4.87 1.817,-5.326 1.817,-5.747 3.634,-12.599 3.634,-13.794 5.451,-22.155 9.085,-37.767 3.634,-14.357 3.634,-13.439 3.634,-12.238 1.817,-5.591 1.817,-5.203 1.817,-4.794 1.817,-4.363 1.817,-3.917 1.817,-3.458 1.817,-2.988 1.817,-2.512 1.817,-2.032 1.817,-1.553 1.817,-1.076 1.817,-0.606 1.817,-0.144 1.817,0.307 1.817,0.743 1.817,1.162 1.817,1.563 1.817,1.943 1.817,2.3 1.817,2.634 1.817,2.941 1.817,3.223 3.634,7.177 3.634,7.963 3.634,8.52 9.085,22.265 5.451,13.002 3.634,8.156 3.634,7.584 3.634,6.905 3.634,6.145 1.817,2.77 1.817,2.561 1.817,2.351 1.817,2.14 1.817,1.928 1.817,1.718 1.816,1.512 1.817,1.309 1.817,1.112 1.817,0.921 1.817,0.737 1.817,0.562 1.817,0.394 1.817,0.236 1.817,0.087 1.817,-0.051 1.817,-0.18 3.634,-0.702 3.634,-1.089 3.634,-1.393 3.634,-1.617 5.451,-2.687 12.719,-6.42 5.451,-2.451 5.451,-2.135 3.634,-1.224 3.634,-1.061 3.634,-0.897 3.634,-0.739 5.451,-0.833 5.451,-0.541 5.451,-0.298 7.271,-0.107 9.08,0.173 16.35,0.643 16.36,0.571 14.53,0.292 18.17,0.134 38.16,-0.011 58.14,-0.02 0,0"
         style="fill:none;stroke:#6666b0;stroke-linecap:square;stroke-linejoin:round;stroke-opacity:0.6"
         id="path38"
         inkscape:connector-curvature="0" />
      <path
         transform="translate(89.10545,-37.033309)"
         clip-path="url(#p09d260489c)"
         d="m 266.687,114.66 185.333,-0.105 32.705,-0.043 12.719,0.226 9.085,0.36 9.085,0.585 9.085,0.837 9.085,1.068 19.987,2.517 5.451,0.456 5.451,0.208 3.634,-0.046 3.634,-0.225 3.634,-0.432 3.634,-0.664 3.634,-0.916 3.634,-1.186 3.634,-1.464 3.634,-1.744 3.634,-2.016 3.634,-2.268 3.634,-2.488 5.451,-4.042 10.901,-8.3437 3.634,-2.5216 3.634,-2.2062 1.817,-0.9458 1.817,-0.8194 1.817,-0.6764 1.817,-0.5167 1.817,-0.3402 1.817,-0.1472 1.817,0.0624 1.817,0.2878 1.817,0.529 1.817,0.785 1.817,1.055 1.817,1.3382 1.817,1.6335 1.817,1.9396 1.817,2.255 1.817,2.5784 1.817,2.9083 1.817,3.242 1.817,3.578 1.817,3.916 1.817,4.251 1.817,4.583 3.634,10.135 3.634,11.359 3.634,12.468 3.634,13.426 3.634,14.197 5.451,22.248 9.085,37.421 3.634,14.238 3.634,13.37 3.634,12.203 1.817,5.577 1.817,5.181 1.817,4.755 1.817,4.3 1.817,3.818 1.817,3.311 1.817,2.784 1.817,2.237 1.817,1.675 1.817,1.101 1.817,0.519 1.817,-0.07 1.817,-0.659 1.817,-1.247 1.817,-1.828 1.817,-2.399 1.817,-2.959 1.817,-3.5 1.817,-4.022 1.817,-4.519 1.817,-4.99 1.817,-5.43 3.634,-12.044 3.633,-13.374 3.634,-14.373 5.451,-22.646 7.268,-30.26 3.634,-14.323 3.634,-13.321 3.634,-12.004 1.817,-5.422 1.817,-4.994 1.817,-4.538 1.817,-4.06 1.817,-3.56 1.817,-3.045 1.817,-2.515 1.817,-1.976 1.817,-1.431 1.817,-0.883 1.817,-0.337 1.817,0.205 1.817,0.739 1.817,1.261 1.817,1.77 1.817,2.259 1.817,2.73 1.817,3.177 1.817,3.599 1.817,3.993 1.817,4.359 3.634,9.685 3.634,10.757 3.634,11.549 5.451,18.192 7.268,24.435 3.634,11.725 3.634,11.101 3.634,10.294 3.634,9.334 3.634,8.259 1.817,3.7 1.817,3.404 1.817,3.103 1.817,2.8 1.817,2.497 1.817,2.195 1.817,1.896 1.817,1.603 1.817,1.316 1.817,1.038 1.817,0.768 1.817,0.511 1.817,0.265 1.817,0.032 1.817,-0.188 1.817,-0.393 1.817,-0.583 1.817,-0.757 1.817,-0.918 3.633,-2.25 3.634,-2.699 3.634,-3.028 5.451,-4.906 9.085,-8.323 5.451,-4.641 3.634,-2.825 3.634,-2.566 3.634,-2.281 3.634,-1.984 3.634,-1.683 3.634,-1.388 3.634,-1.107 3.634,-0.843 3.634,-0.602 3.634,-0.389 3.634,-0.203 5.451,-0.016 5.451,0.246 7.268,0.589 29.072,2.728 9.08,0.523 10.91,0.375 12.72,0.182 19.98,0.003 69.05,-0.143 32.7,0.001 0,0"
         style="fill:none;stroke:#aaaae0;stroke-linecap:square;stroke-linejoin:round;stroke-opacity:0.2"
         id="path41"
         inkscape:connector-curvature="0" />
      <text
         sodipodi:linespacing="125%"
         id="text4637"
         y="324.95395"
         x="935.8623"
         style="font-size:115.19999695px;font-style:oblique;font-variant:normal;font-weight:normal;font-stretch:normal;text-align:start;line-height:125%;letter-spacing:0px;word-spacing:0px;writing-mode:lr-tb;text-anchor:start;fill:#000080;fill-opacity:1;stroke:none;font-family:Waree;-inkscape-font-specification:Waree Oblique"
         xml:space="preserve"><tspan
           y="324.95395"
           x="935.8623"
           id="tspan4639"
           sodipodi:role="line">SIP</tspan></text>
      <text
         sodipodi:linespacing="125%"
         id="text4637-1"
         y="203.68935"
         x="478.77606"
         style="font-size:115.19999695px;font-style:oblique;font-variant:normal;font-weight:normal;font-stretch:normal;text-align:start;line-height:125%;letter-spacing:0px;word-spacing:0px;writing-mode:lr-tb;text-anchor:start;fill:#000080;fill-opacity:1;stroke:none;font-family:Waree;-inkscape-font-specification:Waree Oblique"
         xml:space="preserve"><tspan
           y="203.68935"
           x="478.77606"
           id="tspan4662"
           sodipodi:role="line">open</tspan></text>
    </g>
  </g>
</svg>
